<svg width="180" height="180" viewBox="0 0 180 180" fill="none" xmlns="http://www.w3.org/2000/svg">
<circle cx="90" cy="90" r="90" transform="rotate(-180 90 90)" fill="white"/>
<path d="M101.185 34.2849C100.555 34.1768 99.9848 33.9737 99.4758 33.6754C98.9761 33.3707 98.5576 32.9946 98.2203 32.5473C97.8922 32.0933 97.6624 31.5873 97.5308 31.029C97.3991 30.4708 97.386 29.8841 97.4914 29.2691C97.5967 28.6541 97.8044 28.1052 98.1143 27.6226C98.4242 27.1401 98.8127 26.744 99.2797 26.4344C99.748 26.1169 100.268 25.9016 100.839 25.7884C101.412 25.6674 102.017 25.6615 102.656 25.771C103.334 25.8871 103.933 26.1114 104.452 26.4439C104.973 26.7685 105.387 27.1925 105.695 27.7161L104.542 28.4802C104.298 28.1056 104.004 27.8077 103.66 27.5865C103.318 27.3574 102.93 27.2058 102.496 27.1315C102.062 27.0572 101.652 27.0599 101.265 27.1397C100.886 27.2209 100.54 27.3686 100.227 27.5829C99.9226 27.7985 99.6649 28.0709 99.4543 28.4001C99.2516 28.7306 99.1137 29.1087 99.0408 29.5345C98.9678 29.9603 98.9719 30.3628 99.0531 30.7419C99.1421 31.1224 99.2944 31.4651 99.5101 31.7699C99.7336 32.076 100.011 32.3304 100.341 32.5332C100.68 32.7372 101.066 32.8764 101.499 32.9507C101.933 33.025 102.349 33.015 102.746 32.9208C103.145 32.8187 103.523 32.6277 103.879 32.3479L104.711 33.4643C104.247 33.8476 103.715 34.1095 103.115 34.2502C102.515 34.3908 101.871 34.4024 101.185 34.2849Z" fill="black"/>
<path d="M110.271 36.931C109.188 36.5384 108.449 35.9257 108.053 35.093C107.664 34.263 107.679 33.2726 108.096 32.1218L109.711 27.6655L111.178 28.1971L109.583 32.597C109.288 33.4093 109.247 34.0624 109.46 34.5564C109.68 35.053 110.109 35.4172 110.749 35.6489C111.388 35.8807 111.947 35.875 112.427 35.6318C112.906 35.3887 113.293 34.861 113.588 34.0487L115.183 29.6488L116.627 30.1722L115.011 34.6285C114.594 35.7793 113.967 36.5475 113.129 36.9331C112.299 37.3215 111.347 37.3208 110.271 36.931Z" fill="black"/>
<path d="M116.617 39.6383L120.833 32.373L123.822 34.1076C124.466 34.481 124.956 34.904 125.292 35.3766C125.635 35.8532 125.819 36.3575 125.843 36.8895C125.867 37.4216 125.725 37.954 125.416 38.4868C125.107 39.0196 124.715 39.4074 124.241 39.6504C123.771 39.8864 123.244 39.9737 122.66 39.9122C122.087 39.8479 121.479 39.629 120.835 39.2556L118.593 37.9546L119.551 37.6916L117.967 40.4213L116.617 39.6383ZM121.371 42.3968L121.064 38.6945L122.506 39.5317L122.824 43.24L121.371 42.3968ZM119.466 37.8369L119.238 36.8441L121.417 38.1089C122.012 38.4542 122.533 38.5852 122.979 38.5018C123.432 38.4225 123.791 38.1545 124.056 37.6978C124.325 37.2342 124.38 36.7895 124.22 36.3637C124.067 35.942 123.693 35.5584 123.098 35.2131L120.918 33.9483L121.906 33.6334L119.466 37.8369Z" fill="black"/>
<path d="M126.787 46.719C126.282 46.3006 125.857 45.8293 125.512 45.3049C125.172 44.7743 124.961 44.2828 124.879 43.8303L126.068 43.2412C126.158 43.6588 126.338 44.0936 126.608 44.5455C126.878 44.9974 127.213 45.3891 127.614 45.7208C127.953 46.0014 128.257 46.1915 128.528 46.291C128.799 46.3905 129.035 46.4195 129.235 46.3779C129.441 46.3301 129.61 46.2261 129.743 46.0659C129.906 45.8688 129.965 45.653 129.92 45.4185C129.881 45.1779 129.775 44.9294 129.603 44.6728C129.443 44.4152 129.249 44.1408 129.023 43.8496C128.803 43.5635 128.587 43.2655 128.376 42.9558C128.177 42.6451 128.016 42.3306 127.895 42.0124C127.786 41.6932 127.752 41.364 127.794 41.0248C127.836 40.6856 128 40.3435 128.286 39.9985C128.576 39.6472 128.934 39.4034 129.359 39.2668C129.795 39.1292 130.275 39.1323 130.8 39.2761C131.336 39.4188 131.9 39.7351 132.492 40.2249C132.88 40.5464 133.224 40.9145 133.524 41.3295C133.825 41.7444 134.04 42.1616 134.171 42.5812L133.019 43.2009C132.872 42.7886 132.678 42.4148 132.436 42.0796C132.199 41.7382 131.939 41.4502 131.656 41.2155C131.323 40.94 131.019 40.7555 130.743 40.6622C130.473 40.5739 130.236 40.5536 130.03 40.6014C129.83 40.6543 129.662 40.7639 129.524 40.9303C129.361 41.1274 129.296 41.3438 129.329 41.5793C129.374 41.8137 129.479 42.0566 129.645 42.3081C129.817 42.5646 130.013 42.8416 130.234 43.139C130.461 43.4302 130.676 43.7281 130.881 44.0327C131.092 44.3424 131.255 44.6538 131.369 44.9669C131.49 45.285 131.527 45.6112 131.479 45.9452C131.437 46.2844 131.275 46.6235 130.995 46.9624C130.709 47.3074 130.348 47.5488 129.912 47.6864C129.488 47.8229 129.007 47.8198 128.471 47.6771C127.94 47.5282 127.379 47.2088 126.787 46.719Z" fill="black"/>
<path d="M134.011 54.0834C133.588 53.5821 133.281 53.0509 133.09 52.4898C132.899 51.9287 132.818 51.3684 132.849 50.8089C132.885 50.2443 133.03 49.7087 133.282 49.2021C133.541 48.6903 133.909 48.2331 134.386 47.8306C134.863 47.4281 135.372 47.1447 135.914 46.9804C136.462 46.8109 137.014 46.7582 137.571 46.8223C138.134 46.8812 138.675 47.0518 139.197 47.3343C139.718 47.6168 140.187 48.0055 140.605 48.5007C141.029 49.0019 141.333 49.5301 141.519 50.0851C141.71 50.6462 141.787 51.2091 141.751 51.7737C141.721 52.3332 141.576 52.8688 141.317 53.3806C141.064 53.8872 140.7 54.3418 140.223 54.7443C139.746 55.1468 139.234 55.4328 138.686 55.6023C138.138 55.7717 137.585 55.8244 137.029 55.7604C136.472 55.6963 135.933 55.5231 135.412 55.2406C134.896 54.9643 134.429 54.5785 134.011 54.0834ZM135.049 53.1917C135.322 53.5157 135.63 53.7688 135.972 53.951C136.315 54.1332 136.672 54.24 137.044 54.2714C137.422 54.2977 137.792 54.2523 138.154 54.1353C138.527 54.0192 138.879 53.8218 139.209 53.5431C139.539 53.2644 139.789 52.9535 139.96 52.6103C140.142 52.268 140.249 51.9109 140.281 51.5388C140.318 51.1617 140.276 50.7891 140.154 50.4211C140.031 50.0531 139.834 49.7072 139.56 49.3832C139.287 49.0592 138.979 48.8061 138.636 48.6239C138.299 48.4478 137.939 48.3436 137.556 48.3112C137.184 48.2798 136.811 48.3221 136.438 48.4382C136.076 48.5553 135.73 48.7531 135.4 49.0318C135.076 49.3053 134.823 49.6132 134.641 49.9555C134.464 50.3038 134.357 50.6666 134.319 51.0438C134.288 51.4158 134.333 51.7858 134.455 52.1538C134.577 52.5218 134.775 52.8678 135.049 53.1917Z" fill="black"/>
<path d="M139.58 62.2737C139.252 61.7054 139.018 61.1154 138.878 60.5037C138.744 59.8881 138.718 59.3538 138.798 58.901L140.118 58.7634C140.057 59.1863 140.074 59.6566 140.17 60.1742C140.265 60.6918 140.443 61.1758 140.702 61.6263C140.922 62.0075 141.142 62.2919 141.361 62.4796C141.58 62.6673 141.79 62.7766 141.993 62.8075C142.202 62.8345 142.397 62.796 142.577 62.6921C142.799 62.5642 142.93 62.3826 142.97 62.1473C143.016 61.908 143.004 61.6381 142.932 61.3378C142.872 61.0403 142.786 60.7157 142.676 60.3638C142.569 60.0189 142.471 59.6646 142.381 59.3008C142.302 58.9399 142.262 58.5893 142.259 58.2489C142.268 57.9115 142.351 57.5912 142.509 57.2879C142.666 56.9846 142.939 56.7211 143.327 56.4973C143.722 56.2695 144.143 56.1657 144.588 56.1858C145.045 56.2088 145.494 56.3792 145.936 56.697C146.388 57.0177 146.807 57.5107 147.19 58.176C147.442 58.6126 147.636 59.0778 147.773 59.5714C147.91 60.065 147.967 60.5312 147.942 60.9698L146.647 61.1491C146.653 60.7114 146.601 60.2934 146.492 59.8949C146.389 59.4925 146.245 59.1318 146.062 58.813C145.846 58.4388 145.625 58.1598 145.399 57.9762C145.177 57.7994 144.961 57.6975 144.752 57.6706C144.546 57.6505 144.35 57.6945 144.163 57.8024C143.941 57.9303 143.805 58.1104 143.754 58.3428C143.714 58.5781 143.728 58.8425 143.796 59.136C143.868 59.4363 143.955 59.7644 144.059 60.1203C144.169 60.4721 144.267 60.8265 144.353 61.1833C144.443 61.5472 144.487 61.8958 144.485 62.2292C144.488 62.5695 144.408 62.8879 144.246 63.1842C144.089 63.4875 143.82 63.749 143.438 63.9688C143.05 64.1926 142.628 64.293 142.171 64.27C141.726 64.2499 141.277 64.0795 140.824 63.7588C140.378 63.434 139.963 62.939 139.58 62.2737Z" fill="black"/>
<path d="M144.669 73.9145L152.827 71.9128L153.702 75.4791C153.919 76.3648 153.939 77.1837 153.761 77.9357C153.583 78.6878 153.237 79.3246 152.722 79.8463C152.208 80.3679 151.539 80.7298 150.715 80.9318C149.899 81.132 149.139 81.1209 148.434 80.8986C147.736 80.6743 147.134 80.2701 146.629 79.6858C146.123 79.1015 145.761 78.3664 145.544 77.4807L144.669 73.9145ZM146.323 75.115L146.809 77.0962C146.959 77.71 147.206 78.2098 147.547 78.5954C147.891 78.9889 148.302 79.2546 148.781 79.3925C149.261 79.5382 149.781 79.5424 150.341 79.4051C150.908 79.266 151.367 79.0215 151.718 78.6719C152.078 78.3281 152.32 77.9023 152.442 77.3944C152.567 76.8944 152.553 76.3375 152.403 75.7237L151.917 73.7424L146.323 75.115Z" fill="black"/>
<path d="M146.653 84.3616L155.016 83.5795L155.162 85.1327L146.798 85.9148L146.653 84.3616Z" fill="black"/>
<path d="M146.734 93.1448C146.762 92.4893 146.88 91.8657 147.089 91.274C147.306 90.6825 147.57 90.2171 147.88 89.8778L149.069 90.4681C148.791 90.7927 148.553 91.1992 148.357 91.6874C148.16 92.1756 148.051 92.6794 148.029 93.199C148.011 93.6386 148.044 93.9963 148.129 94.2721C148.213 94.5479 148.333 94.753 148.487 94.8876C148.65 95.0225 148.835 95.0943 149.043 95.103C149.298 95.1138 149.506 95.0304 149.666 94.8529C149.833 94.6757 149.967 94.4411 150.067 94.1491C150.175 93.8654 150.277 93.5453 150.372 93.189C150.466 92.8406 150.573 92.4888 150.692 92.1335C150.819 91.7865 150.972 91.4686 151.153 91.1799C151.34 90.8995 151.582 90.6734 151.878 90.5016C152.173 90.3298 152.545 90.2533 152.992 90.2721C153.448 90.2911 153.858 90.4284 154.224 90.6839C154.597 90.9478 154.885 91.3322 155.088 91.8371C155.299 92.3504 155.389 92.9907 155.356 93.758C155.335 94.2616 155.25 94.7585 155.102 95.2487C154.953 95.7389 154.751 96.1628 154.496 96.5204L153.306 95.9782C153.545 95.6119 153.725 95.2311 153.846 94.8358C153.975 94.4408 154.047 94.0595 154.062 93.6918C154.08 93.2602 154.043 92.9063 153.95 92.6302C153.857 92.3621 153.73 92.1606 153.567 92.0256C153.404 91.8987 153.215 91.8307 152.999 91.8217C152.744 91.811 152.532 91.8902 152.365 92.0594C152.205 92.2369 152.075 92.4676 151.976 92.7517C151.875 93.0437 151.774 93.3678 151.671 93.7238C151.576 94.0801 151.469 94.432 151.35 94.7793C151.231 95.1346 151.082 95.4527 150.902 95.7334C150.722 96.0221 150.484 96.2483 150.189 96.4121C149.893 96.5839 149.526 96.6606 149.086 96.6422C148.639 96.6235 148.228 96.4822 147.855 96.2183C147.489 95.9628 147.201 95.5784 146.99 95.0652C146.788 94.5522 146.702 93.9121 146.734 93.1448Z" fill="black"/>
<path d="M146.175 99.5796L154.394 101.311L153.682 104.693C153.528 105.421 153.28 106.019 152.936 106.486C152.591 106.961 152.169 107.293 151.672 107.482C151.174 107.672 150.624 107.703 150.021 107.576C149.418 107.449 148.927 107.199 148.548 106.824C148.169 106.45 147.917 105.976 147.793 105.402C147.667 104.836 147.681 104.189 147.834 103.461L148.368 100.925L148.941 101.757L145.853 101.106L146.175 99.5796ZM148.777 101.722L149.66 101.197L149.141 103.663C148.999 104.336 149.033 104.871 149.244 105.267C149.461 105.672 149.828 105.929 150.345 106.038C150.869 106.148 151.309 106.061 151.663 105.776C152.016 105.499 152.263 105.024 152.405 104.35L152.924 101.885L153.532 102.724L148.777 101.722Z" fill="black"/>
<path d="M142.148 112.611C142.399 112.005 142.729 111.488 143.14 111.06C143.55 110.633 144.011 110.304 144.521 110.073C145.039 109.846 145.582 109.728 146.148 109.72C146.721 109.714 147.296 109.831 147.873 110.069C148.45 110.307 148.936 110.629 149.331 111.035C149.733 111.444 150.034 111.91 150.233 112.433C150.439 112.96 150.537 113.52 150.526 114.113C150.515 114.705 150.385 115.301 150.138 115.9C149.887 116.506 149.558 117.019 149.151 117.44C148.741 117.867 148.276 118.195 147.758 118.422C147.247 118.653 146.705 118.771 146.132 118.776C145.566 118.784 144.994 118.669 144.418 118.431C143.841 118.193 143.351 117.869 142.949 117.461C142.546 117.052 142.246 116.586 142.047 116.062C141.848 115.538 141.754 114.98 141.765 114.388C141.773 113.802 141.901 113.21 142.148 112.611ZM143.417 113.123C143.255 113.515 143.172 113.904 143.168 114.292C143.163 114.68 143.233 115.046 143.376 115.391C143.526 115.739 143.737 116.046 144.007 116.314C144.282 116.592 144.619 116.813 145.018 116.978C145.417 117.143 145.809 117.223 146.192 117.217C146.58 117.221 146.946 117.152 147.291 117.009C147.643 116.868 147.954 116.66 148.225 116.382C148.495 116.104 148.712 115.769 148.874 115.377C149.035 114.986 149.119 114.596 149.123 114.208C149.124 113.828 149.051 113.46 148.904 113.105C148.761 112.76 148.552 112.449 148.277 112.171C148.007 111.903 147.672 111.687 147.273 111.522C146.881 111.36 146.491 111.277 146.103 111.272C145.713 111.275 145.341 111.347 144.989 111.487C144.644 111.63 144.336 111.841 144.066 112.118C143.795 112.396 143.579 112.731 143.417 113.123Z" fill="black"/>
<path d="M138.993 119.168L146.009 123.786L145.303 124.859L137.004 125.702L137.353 125.171L142.756 128.728L141.905 130.021L134.889 125.402L135.595 124.329L143.894 123.486L143.544 124.017L138.141 120.461L138.993 119.168Z" fill="black"/>
<path d="M132.684 127.728L138.945 133.327L137.906 134.49L131.644 128.891L132.684 127.728ZM139.607 133.613L139.753 135.916L138.577 137.231L138.743 134.579L139.607 133.613Z" fill="black"/>
<path d="M126.487 133.757L134.707 137.816L133.413 138.906L126.014 135.206L126.758 134.58L129.118 142.524L127.925 143.529L125.313 134.746L126.487 133.757Z" fill="black"/>
<path d="M121.844 143.073L118.237 145.177L117.59 144.068L121.197 141.964L121.844 143.073ZM119.926 140.024L115.832 142.412L115.173 141.282L120.615 138.108L124.847 145.364L119.551 148.453L118.891 147.323L122.841 145.02L119.926 140.024Z" fill="black"/>
<path d="M111.806 142.65L114.975 150.429L113.531 151.018L110.361 143.239L111.806 142.65Z" fill="black"/>
<path d="M103.423 145.27C104.058 145.107 104.689 145.039 105.316 145.068C105.945 145.105 106.467 145.222 106.881 145.421L106.66 146.73C106.269 146.558 105.811 146.448 105.287 146.401C104.763 146.354 104.249 146.396 103.746 146.525C103.319 146.635 102.987 146.77 102.747 146.931C102.508 147.092 102.346 147.265 102.262 147.452C102.179 147.647 102.164 147.845 102.216 148.046C102.28 148.294 102.42 148.469 102.636 148.57C102.854 148.679 103.117 148.74 103.426 148.751C103.729 148.772 104.064 148.777 104.433 148.765C104.794 148.754 105.162 148.755 105.536 148.766C105.905 148.787 106.254 148.842 106.582 148.931C106.905 149.029 107.191 149.195 107.441 149.428C107.691 149.661 107.872 149.995 107.983 150.429C108.097 150.87 108.084 151.303 107.946 151.727C107.801 152.161 107.517 152.548 107.092 152.888C106.662 153.239 106.075 153.509 105.331 153.701C104.843 153.826 104.343 153.889 103.83 153.888C103.318 153.888 102.854 153.817 102.438 153.677L102.612 152.38C103.032 152.503 103.449 152.566 103.862 152.567C104.277 152.576 104.663 152.534 105.02 152.442C105.438 152.335 105.766 152.197 106.003 152.028C106.233 151.862 106.389 151.681 106.471 151.487C106.546 151.294 106.556 151.093 106.502 150.884C106.438 150.636 106.301 150.457 106.091 150.345C105.875 150.244 105.617 150.187 105.316 150.173C105.007 150.162 104.668 150.158 104.297 150.163C103.928 150.175 103.561 150.174 103.194 150.161C102.819 150.15 102.472 150.099 102.151 150.008C101.822 149.919 101.537 149.757 101.295 149.522C101.045 149.289 100.865 148.96 100.755 148.533C100.644 148.1 100.66 147.666 100.805 147.232C100.944 146.808 101.228 146.421 101.659 146.071C102.091 145.728 102.679 145.462 103.423 145.27Z" fill="black"/>
<path d="M89.8422 149.028C90.0662 149.028 90.2782 149.084 90.4782 149.196C90.6782 149.308 90.8382 149.46 90.9582 149.652C91.0702 149.852 91.1262 150.08 91.1262 150.336C91.1262 150.584 91.0702 150.804 90.9582 150.996C90.8382 151.196 90.6782 151.352 90.4782 151.464C90.2782 151.576 90.0662 151.632 89.8422 151.632C89.6022 151.632 89.3862 151.576 89.1942 151.464C88.9942 151.352 88.8382 151.196 88.7262 150.996C88.6062 150.804 88.5462 150.584 88.5462 150.336C88.5462 150.08 88.6062 149.852 88.7262 149.652C88.8382 149.46 88.9942 149.308 89.1942 149.196C89.3862 149.084 89.6022 149.028 89.8422 149.028Z" fill="black"/>
<path d="M73.887 144.582C74.5059 144.745 75.0556 144.998 75.5363 145.34C76.0072 145.687 76.391 146.099 76.6876 146.574C76.9744 147.055 77.1587 147.579 77.2406 148.147C77.3226 148.715 77.284 149.3 77.1248 149.904C76.9657 150.507 76.7105 151.035 76.3592 151.489C76.0079 151.942 75.5861 152.303 75.0937 152.57C74.5992 152.845 74.0624 153.013 73.4833 153.076C72.9022 153.146 72.2984 153.098 71.6718 152.933C71.0066 152.758 70.43 152.481 69.942 152.104C69.4519 151.735 69.0765 151.276 68.8158 150.728L70.0323 150.068C70.2426 150.463 70.5091 150.785 70.8319 151.036C71.1526 151.294 71.5257 151.48 71.9511 151.592C72.3766 151.704 72.7856 151.738 73.1781 151.692C73.5629 151.645 73.9205 151.528 74.2509 151.342C74.5735 151.154 74.8542 150.906 75.0929 150.596C75.324 150.285 75.4946 149.92 75.6048 149.503C75.715 149.085 75.7464 148.684 75.6989 148.299C75.6438 147.912 75.5222 147.557 75.3343 147.235C75.1386 146.91 74.8851 146.632 74.5737 146.401C74.2546 146.168 73.8824 145.995 73.4569 145.883C73.0315 145.771 72.6165 145.744 72.2122 145.803C71.8058 145.87 71.4127 146.027 71.0331 146.274L70.3033 145.089C70.7986 144.748 71.3515 144.534 71.9619 144.446C72.5723 144.359 73.214 144.404 73.887 144.582Z" fill="black"/>
<path d="M65.0699 141.145C66.1141 141.632 66.7967 142.307 67.1177 143.172C67.4315 144.033 67.3299 145.018 66.813 146.128L64.8114 150.424L63.3973 149.765L65.3736 145.523C65.7385 144.74 65.8369 144.093 65.6688 143.582C65.4936 143.068 65.0977 142.668 64.4813 142.38C63.8649 142.093 63.3072 142.05 62.808 142.25C62.3089 142.45 61.877 142.941 61.5121 143.724L59.5358 147.967L58.1435 147.318L60.1451 143.021C60.662 141.912 61.3546 141.202 62.2228 140.891C63.0839 140.578 64.0329 140.662 65.0699 141.145Z" fill="black"/>
<path d="M58.987 137.89L54.1471 144.755L51.3224 142.764C50.7144 142.335 50.2637 141.871 49.9704 141.37C49.6706 140.865 49.5321 140.347 49.5548 139.815C49.5775 139.283 49.7664 138.765 50.1213 138.261C50.4762 137.758 50.9004 137.406 51.3939 137.206C51.8828 137.012 52.4155 136.972 52.9918 137.084C53.5571 137.199 54.1437 137.471 54.7518 137.899L56.8703 139.393L55.8935 139.57L57.7119 136.991L58.987 137.89ZM54.4949 134.723L54.4748 138.438L53.1115 137.477L53.1218 133.755L54.4949 134.723ZM55.9903 139.433L56.1305 140.442L54.0709 138.99C53.5085 138.594 53.0015 138.417 52.5498 138.461C52.0916 138.5 51.7103 138.736 51.4061 139.167C51.0973 139.605 51.0038 140.043 51.1255 140.482C51.2407 140.915 51.5795 141.33 52.1418 141.727L54.2015 143.179L53.1901 143.405L55.9903 139.433Z" fill="black"/>
<path d="M49.4806 129.94C49.947 130.401 50.3289 130.908 50.6261 131.461C50.9177 132.019 51.0846 132.528 51.1268 132.986L49.8906 133.468C49.8373 133.044 49.6962 132.595 49.4673 132.121C49.2384 131.647 48.939 131.227 48.5693 130.862C48.2564 130.552 47.9696 130.336 47.7087 130.213C47.4477 130.09 47.2155 130.04 47.012 130.064C46.8029 130.094 46.6252 130.182 46.4789 130.33C46.2989 130.512 46.2209 130.722 46.2448 130.959C46.2632 131.203 46.3466 131.459 46.4952 131.73C46.6325 132.001 46.801 132.291 47.0007 132.601C47.1947 132.906 47.3832 133.221 47.566 133.549C47.7376 133.876 47.8695 134.203 47.9618 134.531C48.0428 134.858 48.0475 135.189 47.9758 135.523C47.9042 135.858 47.7108 136.184 47.3958 136.502C47.0752 136.827 46.6973 137.038 46.2623 137.137C45.8159 137.235 45.3377 137.19 44.8275 137C44.306 136.811 43.7722 136.446 43.2261 135.906C42.8678 135.552 42.5573 135.155 42.2946 134.715C42.0319 134.275 41.8541 133.841 41.7612 133.411L42.9633 132.895C43.0731 133.319 43.2337 133.708 43.445 134.064C43.6506 134.425 43.8843 134.734 44.146 134.993C44.4531 135.297 44.74 135.507 45.0065 135.625C45.2674 135.736 45.5023 135.778 45.7115 135.748C45.9149 135.713 46.0926 135.619 46.2445 135.465C46.4245 135.283 46.5082 135.073 46.4955 134.836C46.4716 134.598 46.3882 134.347 46.2453 134.082C46.0967 133.811 45.9253 133.518 45.7312 133.202C45.5315 132.892 45.3431 132.577 45.1659 132.255C44.9831 131.928 44.8483 131.604 44.7617 131.282C44.6693 130.954 44.6619 130.626 44.7392 130.297C44.8109 129.963 45.0014 129.64 45.3108 129.327C45.6258 129.008 46.0065 128.8 46.4529 128.701C46.8879 128.603 47.3662 128.648 47.8877 128.837C48.4035 129.032 48.9345 129.4 49.4806 129.94Z" fill="black"/>
<path d="M42.9338 121.968C43.3111 122.504 43.5702 123.061 43.7111 123.636C43.8519 124.212 43.8827 124.777 43.8033 125.332C43.7173 125.891 43.5261 126.412 43.2296 126.894C42.9265 127.381 42.5198 127.804 42.0094 128.163C41.499 128.522 40.9667 128.76 40.4125 128.876C39.8517 128.996 39.2969 129 38.7481 128.887C38.1928 128.779 37.668 128.561 37.1738 128.234C36.6796 127.906 36.2461 127.478 35.8733 126.948C35.496 126.411 35.2391 125.858 35.1029 125.289C34.962 124.713 34.9346 124.146 35.0205 123.586C35.1 123.032 35.2912 122.511 35.5942 122.024C35.8907 121.542 36.2942 121.121 36.8046 120.762C37.315 120.403 37.8506 120.163 38.4113 120.043C38.9721 119.922 39.5269 119.919 40.0757 120.031C40.6245 120.144 41.146 120.364 41.6402 120.692C42.1298 121.012 42.561 121.438 42.9338 121.968ZM41.8217 122.765C41.5778 122.418 41.2934 122.139 40.9685 121.927C40.6436 121.715 40.2973 121.577 39.9295 121.513C39.5551 121.454 39.1826 121.466 38.8118 121.551C38.4299 121.634 38.0622 121.799 37.7089 122.048C37.3555 122.297 37.0786 122.584 36.8781 122.911C36.6664 123.236 36.5286 123.582 36.4645 123.95C36.3939 124.322 36.4032 124.697 36.4925 125.075C36.5818 125.452 36.7484 125.814 36.9923 126.161C37.2362 126.508 37.5206 126.787 37.8455 126.998C38.1658 127.204 38.5154 127.339 38.8943 127.405C39.2621 127.469 39.637 127.46 40.0189 127.377C40.3897 127.292 40.7517 127.126 41.1051 126.877C41.4519 126.633 41.7312 126.349 41.9428 126.024C42.1498 125.693 42.2887 125.341 42.3593 124.968C42.4234 124.601 42.4108 124.228 42.3215 123.851C42.2322 123.473 42.0656 123.111 41.8217 122.765Z" fill="black"/>
<path d="M38.1085 113.319C38.3848 113.914 38.5659 114.522 38.6518 115.144C38.7304 115.769 38.7097 116.303 38.5895 116.747L37.2628 116.768C37.3607 116.352 37.385 115.882 37.3356 115.358C37.2863 114.834 37.1521 114.336 36.9331 113.865C36.7477 113.466 36.5542 113.163 36.3526 112.957C36.1509 112.75 35.9506 112.623 35.7516 112.574C35.5453 112.529 35.3478 112.55 35.1592 112.638C34.927 112.746 34.7807 112.915 34.7204 113.146C34.6528 113.38 34.6414 113.65 34.6863 113.956C34.7206 114.257 34.7772 114.588 34.8563 114.948C34.9321 115.301 34.9986 115.663 35.0559 116.033C35.1026 116.4 35.1121 116.753 35.0845 117.092C35.0462 117.427 34.9352 117.739 34.7515 118.027C34.5678 118.315 34.2728 118.554 33.8665 118.742C33.4529 118.935 33.0251 119.001 32.583 118.942C32.1302 118.878 31.6978 118.669 31.2857 118.314C30.863 117.954 30.4899 117.426 30.1663 116.73C29.954 116.273 29.8014 115.792 29.7086 115.289C29.6157 114.785 29.6006 114.315 29.6633 113.881L30.9697 113.816C30.925 114.252 30.9397 114.673 31.0139 115.079C31.0808 115.489 31.1918 115.861 31.3468 116.195C31.5288 116.587 31.7242 116.884 31.9331 117.087C32.1387 117.282 32.3446 117.403 32.5509 117.448C32.7538 117.486 32.9532 117.46 33.1491 117.369C33.3813 117.261 33.5328 117.094 33.6038 116.867C33.6641 116.636 33.6736 116.371 33.632 116.073C33.5872 115.767 33.5288 115.433 33.457 115.069C33.3779 114.709 33.3113 114.347 33.2574 113.984C33.2 113.614 33.1869 113.263 33.2179 112.931C33.2456 112.592 33.353 112.281 33.54 112.001C33.7237 111.712 34.0151 111.476 34.4142 111.29C34.8205 111.102 35.25 111.039 35.7027 111.102C36.1448 111.161 36.5773 111.37 37 111.73C37.4154 112.093 37.7849 112.622 38.1085 113.319Z" fill="black"/>
<path d="M34.0647 101.275L25.7621 102.55L25.2047 98.9204C25.0663 98.0189 25.1188 97.2015 25.3623 96.468C25.6058 95.7346 26.0068 95.1307 26.5653 94.6564C27.1238 94.1822 27.8221 93.8807 28.6603 93.752C29.4905 93.6245 30.2471 93.7025 30.9301 93.9862C31.6052 94.271 32.1689 94.7267 32.6212 95.3533C33.0736 95.9799 33.369 96.7439 33.5074 97.6454L34.0647 101.275ZM32.5233 99.9332L32.2136 97.9169C32.1177 97.2922 31.9165 96.7727 31.6101 96.3584C31.3024 95.9362 30.9163 95.6354 30.4516 95.4558C29.9858 95.2684 29.4682 95.2183 28.8989 95.3058C28.3216 95.3944 27.8429 95.5974 27.4627 95.9148C27.0733 96.2255 26.7953 96.6284 26.6285 97.1234C26.4605 97.6106 26.4244 98.1665 26.5203 98.7912L26.83 100.808L32.5233 99.9332Z" fill="black"/>
<path d="M33.0092 90.6935L24.6093 90.7356L24.6015 89.1756L33.0014 89.1335L33.0092 90.6935Z" fill="black"/>
<path d="M33.7018 81.9373C33.6167 82.5878 33.444 83.1986 33.1837 83.7696C32.9155 84.3396 32.6118 84.78 32.2727 85.0906L31.141 84.398C31.4463 84.099 31.7184 83.7151 31.9573 83.2461C32.1961 82.7771 32.3493 82.2848 32.4167 81.7692C32.4738 81.3329 32.4724 80.9737 32.4125 80.6916C32.3526 80.4094 32.2516 80.1945 32.1095 80.0468C31.9596 79.8981 31.7815 79.8103 31.5752 79.7833C31.3214 79.7501 31.1072 79.8149 30.9326 79.9776C30.7501 80.1393 30.596 80.3612 30.4703 80.6432C30.3378 80.9164 30.2085 81.2262 30.0825 81.5728C29.9575 81.9114 29.8201 82.2525 29.6703 82.596C29.5136 82.9305 29.3327 83.2336 29.1277 83.5053C28.9159 83.768 28.6552 83.9719 28.3458 84.117C28.0364 84.2621 27.6595 84.3056 27.2153 84.2475C26.7632 84.1883 26.3662 84.0154 26.0246 83.7286C25.676 83.4329 25.4228 83.0246 25.265 82.5038C25.1004 81.9739 25.0678 81.3283 25.1675 80.5667C25.2328 80.067 25.3611 79.5795 25.5524 79.1043C25.7437 78.6291 25.9821 78.2246 26.2679 77.8909L27.4058 78.5359C27.1349 78.8797 26.922 79.2431 26.767 79.6263C26.604 80.0084 26.4987 80.3819 26.4509 80.7467C26.3949 81.1751 26.4008 81.5309 26.4687 81.8141C26.5375 82.0893 26.647 82.3013 26.7969 82.45C26.9479 82.5908 27.1305 82.6752 27.3447 82.7032C27.5986 82.7364 27.8162 82.6761 27.9977 82.5224C28.1723 82.3597 28.3219 82.1412 28.4465 81.8671C28.5721 81.585 28.7019 81.2712 28.8359 80.9256C28.9619 80.579 29.0993 80.238 29.2481 79.9024C29.3979 79.559 29.5748 79.2554 29.7787 78.9916C29.9837 78.7199 30.2404 78.5154 30.5488 78.3783C30.8582 78.2332 31.2311 78.1892 31.6674 78.2463C32.1116 78.3044 32.508 78.4813 32.8566 78.777C33.1983 79.0638 33.4514 79.472 33.6161 80.0019C33.7728 80.5307 33.8014 81.1758 33.7018 81.9373Z" fill="black"/>
<path d="M34.8264 75.5769L26.7914 73.1277L27.7991 69.8218C28.016 69.1102 28.3162 68.5368 28.6997 68.1017C29.0856 67.659 29.5348 67.3652 30.0473 67.2203C30.5598 67.0754 31.1107 67.0928 31.6999 67.2724C32.2891 67.452 32.756 67.7449 33.1006 68.151C33.4451 68.5571 33.6541 69.0515 33.7274 69.6342C33.803 70.2092 33.7323 70.8526 33.5154 71.5643L32.7596 74.0436L32.2624 73.1644L35.2813 74.0847L34.8264 75.5769ZM32.4231 73.2134L31.497 73.6588L32.2318 71.2483C32.4324 70.5902 32.4451 70.0546 32.2699 69.6416C32.0894 69.2185 31.7466 68.9301 31.2415 68.7761C30.7288 68.6198 30.2834 68.6681 29.9053 68.9208C29.5295 69.1659 29.2413 69.6175 29.0407 70.2756L28.306 72.6861L27.7743 71.7964L32.4231 73.2134Z" fill="black"/>
<path d="M39.9856 62.9506C39.6826 63.5324 39.3079 64.0183 38.8613 64.4081C38.4148 64.7979 37.927 65.0851 37.398 65.2696C36.8619 65.4505 36.3115 65.5202 35.7468 65.4787C35.1751 65.4335 34.6124 65.2668 34.059 64.9786C33.5055 64.6904 33.0499 64.3269 32.6921 63.8881C32.3273 63.4455 32.0688 62.9546 31.9166 62.4154C31.7574 61.8725 31.7094 61.3063 31.7728 60.717C31.8361 60.1276 32.0175 59.5456 32.3167 58.9708C32.6197 58.389 32.9926 57.9067 33.4354 57.5239C33.882 57.1341 34.3733 56.8488 34.9094 56.6679C35.4384 56.4834 35.9888 56.4137 36.5606 56.4589C37.1253 56.5004 37.6843 56.6652 38.2378 56.9534C38.7913 57.2416 39.2504 57.607 39.6153 58.0495C39.9801 58.492 40.2387 58.9829 40.3908 59.5222C40.543 60.0614 40.5874 60.6257 40.524 61.215C40.4643 61.7973 40.2849 62.3758 39.9856 62.9506ZM38.7667 62.3294C38.9625 61.9533 39.0797 61.5724 39.1182 61.1866C39.1568 60.8008 39.1199 60.4298 39.0077 60.0737C38.8884 59.7139 38.7059 59.3889 38.4602 59.0986C38.2111 58.7975 37.8949 58.5472 37.5118 58.3477C37.1286 58.1482 36.7458 58.0346 36.3634 58.0068C35.9776 57.9683 35.6067 58.0051 35.2506 58.1173C34.8874 58.2259 34.5588 58.4065 34.2648 58.6593C33.9708 58.9121 33.7259 59.2266 33.5301 59.6026C33.3343 59.9787 33.2171 60.3596 33.1785 60.7454C33.1437 61.1242 33.1841 61.497 33.2997 61.8638C33.4119 62.2199 33.5926 62.5485 33.8417 62.8496C34.0874 63.1399 34.4018 63.3848 34.785 63.5843C35.1611 63.7801 35.542 63.8973 35.9278 63.9359C36.3173 63.9673 36.6937 63.9288 37.0569 63.8202C37.4129 63.708 37.738 63.5255 38.032 63.2727C38.326 63.0199 38.5709 62.7055 38.7667 62.3294Z" fill="black"/>
<path d="M43.7066 56.698L37.1248 51.4789L37.9226 50.4728L46.2637 50.3638L45.8686 50.8621L40.8006 46.8434L41.7624 45.6305L48.3442 50.8496L47.5464 51.8557L39.2053 51.9647L39.6004 51.4664L44.6685 55.4851L43.7066 56.698Z" fill="black"/>
<path d="M50.7454 48.727L45.0012 42.598L46.1395 41.5313L51.8836 47.6603L50.7454 48.727ZM44.3672 42.2549L44.425 39.9475L45.7121 38.7413L45.3128 41.3686L44.3672 42.2549Z" fill="black"/>
<path d="M57.4487 43.2675L49.6184 38.4999L51.0035 37.5281L58.0479 41.865L57.2522 42.4232L55.601 34.3028L56.878 33.4068L58.7061 42.3853L57.4487 43.2675Z" fill="black"/>
<path d="M62.8951 34.3968L66.6736 32.6187L67.2203 33.7805L63.4418 35.5586L62.8951 34.3968ZM64.5365 37.6031L68.8253 35.5848L69.3823 36.7683L63.6819 39.4508L60.1053 31.8503L65.6536 29.2393L66.2105 30.4228L62.0737 32.3696L64.5365 37.6031Z" fill="black"/>
<path d="M72.8564 35.7023L70.3852 27.674L71.8762 27.2151L74.3474 35.2434L72.8564 35.7023Z" fill="black"/>
<path d="M81.4384 33.831C80.7911 33.9378 80.1565 33.9492 79.5346 33.8654C78.9113 33.7736 78.4019 33.6104 78.0065 33.3756L78.3419 32.0919C78.7164 32.2977 79.1627 32.447 79.6807 32.5399C80.1988 32.6328 80.7143 32.6369 81.2274 32.5523C81.6615 32.4807 82.005 32.3753 82.2577 32.2363C82.5104 32.0973 82.6869 31.9385 82.7872 31.7598C82.8861 31.5732 82.9187 31.3773 82.8848 31.1721C82.8431 30.9195 82.7191 30.7332 82.5129 30.6131C82.3053 30.4852 82.0483 30.402 81.7419 30.3633C81.4421 30.3155 81.1081 30.2814 80.7399 30.2611C80.3796 30.2395 80.0133 30.2066 79.6412 30.1626C79.2757 30.1094 78.9332 30.024 78.6138 29.9065C78.301 29.7797 78.0304 29.5892 77.8019 29.335C77.5735 29.0808 77.4228 28.7327 77.3499 28.2907C77.2757 27.8408 77.3263 27.4108 77.5019 27.0007C77.6841 26.5815 78.0016 26.221 78.4546 25.9192C78.9141 25.6082 79.5227 25.3903 80.2805 25.2652C80.7777 25.1832 81.2815 25.1649 81.7917 25.2105C82.3019 25.256 82.7581 25.3672 83.1603 25.5441L82.8722 26.8201C82.4647 26.6603 82.0552 26.5616 81.6436 26.5241C81.2307 26.4787 80.8427 26.486 80.4796 26.5459C80.0534 26.6162 79.7145 26.7248 79.4631 26.8717C79.2195 27.0173 79.0483 27.1834 78.9493 27.37C78.8583 27.5553 78.8304 27.7545 78.8655 27.9676C78.9072 28.2202 79.0279 28.4111 79.2276 28.5403C79.4339 28.6603 79.6863 28.7403 79.9847 28.7803C80.2911 28.8189 80.6291 28.8523 80.9986 28.8805C81.3668 28.9009 81.733 28.9337 82.0973 28.979C82.4694 29.023 82.8112 29.1044 83.1227 29.2233C83.4421 29.3409 83.7121 29.5274 83.9326 29.7829C84.1611 30.0371 84.3111 30.3813 84.3827 30.8154C84.4557 31.2575 84.401 31.6881 84.2189 32.1074C84.0433 32.5174 83.7257 32.8779 83.2662 33.1889C82.8054 33.4919 82.1961 33.706 81.4384 33.831Z" fill="black"/>
</svg>
